<svg id="Camada_1" data-name="Camada 1" xmlns="http://www.w3.org/2000/svg" viewBox="0 0 126.35 105.18"><defs><style>.cls-1,.cls-2{fill:#1d1d1b;}.cls-1{opacity:0.58;}</style></defs><path class="cls-1" d="M20.23,13.79l-10.45,10a7.44,7.44,0,0,0,0,8.82C9.25,32.74,45.52,79,59.6,93.9a6.6,6.6,0,0,0,9.74.2s38.24-44.79,49.72-61.3a7.9,7.9,0,0,0,0-8.81L108.19,13.53l7.59,10.66a5.6,5.6,0,0,1-.72,6.87L64.38,84.33,12.75,30S11,27,12.85,24.55Z"/><path class="cls-2" d="M30.18,41.41s18.86-1.95,34,19.28c0,0,11.89-19.38,34.24-19.17l-7.79,8.4S86.25,48.79,81,53.3L64.21,72.47,47.6,53.61a19.73,19.73,0,0,0-9.43-4Z"/></svg>