<svg id="Camada_1" data-name="Camada 1" xmlns="http://www.w3.org/2000/svg" viewBox="0 0 477.39 126.83"><defs><style>.cls-1,.cls-2,.cls-3{fill:#1d1d1b;}.cls-1{opacity:0.58;}.cls-3{font-size:71px;font-family:BankGothicBT-Medium, BankGothic Md BT;font-weight:500;}.cls-4{letter-spacing:-0.07em;}.cls-5{letter-spacing:-0.04em;}</style></defs><path class="cls-1" d="M37.35,26.84l-10.45,10a7.44,7.44,0,0,0,0,8.82c-.53.14,35.73,46.4,49.82,61.3a6.6,6.6,0,0,0,9.74.2s38.23-44.8,49.71-61.3a7.9,7.9,0,0,0,0-8.82L125.31,26.59l7.58,10.66a5.59,5.59,0,0,1-.71,6.87L81.5,97.39,29.87,43.09S28.13,40,30,37.61Z"/><path class="cls-2" d="M47.3,54.47s18.86-1.95,34,19.27c0,0,11.89-19.37,34.24-19.17L107.78,63s-4.41-1.13-9.64,3.38L81.33,85.53,64.72,66.67a19.73,19.73,0,0,0-9.43-4Z"/><text class="cls-3" transform="translate(151.13 84.35)"><tspan class="cls-4">T</tspan><tspan class="cls-5" x="39.56" y="0">A</tspan><tspan x="91.77" y="0">VRUS</tspan></text></svg>