<?xml version="1.0" encoding="utf-8"?>
<!-- Generator: Adobe Illustrator 25.2.1, SVG Export Plug-In . SVG Version: 6.00 Build 0)  -->
<svg version="1.1" id="Camada_1" xmlns="http://www.w3.org/2000/svg" xmlns:xlink="http://www.w3.org/1999/xlink" x="0px" y="0px"
	 viewBox="0 0 477.4 126.8" style="enable-background:new 0 0 477.4 126.8;" xml:space="preserve">
<style type="text/css">
	.st0{opacity:0.58;}
</style>
<g>
	<path class="st0" d="M37.4,26.8l-10.5,10c0,0-3.3,4,0,8.8c-0.5,0.1,35.7,46.4,49.8,61.3c1.6,1.7,5.6,4,9.7,0.2
		c0,0,38.2-44.8,49.7-61.3c1.3-1.8,2.3-5.3,0-8.8l-10.9-10.5l7.6,10.7c0,0,2.4,3.4-0.7,6.9L81.5,97.4L29.9,43.1c0,0-1.7-3.1,0.1-5.5
		L37.4,26.8z"/>
	<path d="M47.3,54.5c0,0,18.9-1.9,34,19.3c0,0,11.9-19.4,34.2-19.2l-7.8,8.4c0,0-4.4-1.1-9.6,3.4L81.3,85.5L64.7,66.7
		c0,0-4.2-3.5-9.4-4L47.3,54.5z"/>
</g>
<g>
	<path d="M177.5,54.3v30.1H169V54.3h-16.8v-6.6h42.2v6.6H177.5z"/>
	<path d="M193,84.4l20.7-36.6h8.2l21,36.6h-9.6l-4.4-8h-23.2l-4.3,8H193z M209.4,69.7h16.1l-7.9-14.9L209.4,69.7z"/>
	<path d="M264.6,84.4l-21.2-36.6h9.7L268,74.2l14.1-26.5h8.5l-20.1,36.6H264.6z"/>
	<path d="M300.6,84.4V47.7H332c2.9,0,5,0.6,6.3,1.7c1.3,1.1,2,2.9,2,5.4v8.6c0,2.5-0.7,4.3-2,5.4c-1.3,1.1-3.4,1.7-6.3,1.7h-4.8
		l16.9,13.8h-12.2l-14.8-13.8H309v13.8H300.6z M328.2,54.1H309v10.2h19.2c1.5,0,2.5-0.2,3-0.6c0.5-0.4,0.8-1.2,0.8-2.3v-4.4
		c0-1.1-0.3-1.8-0.8-2.2C330.7,54.3,329.7,54.1,328.2,54.1z"/>
	<path d="M366.1,47.7v29.7h24.3V47.7h8.5v28c0,3.4-0.6,5.6-1.9,6.8c-1.2,1.2-3.7,1.8-7.2,1.8h-23.2c-3.5,0-5.9-0.6-7.2-1.8
		c-1.3-1.2-1.9-3.5-1.9-6.8v-28H366.1z"/>
	<path d="M449.4,54.1h-24V62h22.8c3.6,0,6,0.6,7.3,1.8c1.3,1.2,1.9,3.5,1.9,6.8v5c0,3.3-0.6,5.6-1.9,6.8c-1.3,1.2-3.7,1.8-7.3,1.8
		h-22.6c-3.6,0-6-0.6-7.3-1.8c-1.3-1.2-1.9-3.5-1.9-6.8v-1l7.5-1.6v4.3h25.9v-8.4H427c-3.6,0-6-0.6-7.2-1.8
		c-1.2-1.2-1.9-3.5-1.9-6.8v-4.1c0-3.3,0.6-5.6,1.9-6.8c1.2-1.2,3.7-1.8,7.2-1.8h20.8c3.4,0,5.8,0.6,7.1,1.8c1.3,1.2,2,3.3,2,6.3
		v0.8l-7.5,1.8V54.1z"/>
</g>
</svg>
